<?xml version="1.0" standalone="no"?>
<!DOCTYPE svg PUBLIC "-//W3C//DTD SVG 20010904//EN"
 "http://www.w3.org/TR/2001/REC-SVG-20010904/DTD/svg10.dtd">
<svg version="1.0" xmlns="http://www.w3.org/2000/svg"
 width="512.000000pt" height="512.000000pt" viewBox="0 0 512.000000 512.000000"
 preserveAspectRatio="xMidYMid meet">
<metadata>
Created by potrace 1.14, written by Peter Selinger 2001-2017
</metadata>
<g transform="translate(0.000000,512.000000) scale(0.100000,-0.100000)"
fill="#000000" stroke="none">
<path d="M2366 4181 c8 -16 21 -32 30 -35 9 -3 4 8 -12 29 -32 43 -37 44 -18
6z"/>
<path d="M2431 4103 c11 -13 11 -17 1 -21 -9 -3 -6 -10 9 -23 30 -26 32 -24
14 17 -8 20 -15 38 -15 40 0 2 -5 4 -11 4 -8 0 -7 -6 2 -17z"/>
<path d="M2531 3964 c0 -11 3 -14 6 -6 3 7 2 16 -1 19 -3 4 -6 -2 -5 -13z"/>
<path d="M2353 3893 c9 -2 25 -2 35 0 9 3 1 5 -18 5 -19 0 -27 -2 -17 -5z"/>
<path d="M2418 3883 c7 -3 16 -2 19 1 4 3 -2 6 -13 5 -11 0 -14 -3 -6 -6z"/>
<path d="M2522 3835 c26 -27 32 -26 21 1 -5 10 -16 20 -25 20 -15 2 -15 -2 4
-21z"/>
<path d="M2550 3790 c0 -5 5 -10 11 -10 5 0 7 5 4 10 -3 6 -8 10 -11 10 -2 0
-4 -4 -4 -10z"/>
<path d="M2574 3725 c-7 -17 0 -98 12 -134 5 -18 4 -22 -5 -16 -10 6 -11 3 -3
-11 16 -31 26 -108 13 -100 -6 4 -11 3 -11 -3 0 -5 5 -13 10 -16 6 -3 10 -54
11 -113 0 -78 3 -99 10 -78 4 17 6 45 3 64 -4 23 -2 32 5 28 8 -5 8 0 1 18 -5
14 -12 69 -14 123 -3 54 -10 127 -15 162 -5 35 -7 70 -4 78 3 7 2 13 -1 13 -4
0 -9 -7 -12 -15z"/>
<path d="M3049 3693 c-13 -16 -12 -17 4 -4 9 7 17 15 17 17 0 8 -8 3 -21 -13z"/>
<path d="M3000 3651 c-7 -15 -7 -21 0 -21 12 0 25 28 17 36 -3 3 -10 -4 -17
-15z"/>
<path d="M2625 3629 c-4 -6 -5 -12 -2 -15 2 -3 7 2 10 11 7 17 1 20 -8 4z"/>
<path d="M2916 3627 c3 -10 9 -15 12 -12 3 3 0 11 -7 18 -10 9 -11 8 -5 -6z"/>
<path d="M2958 3591 c-14 -15 -23 -33 -19 -39 4 -6 16 6 29 29 27 46 26 47
-10 10z"/>
<path d="M2090 3569 c0 -9 9 -27 21 -40 11 -13 18 -18 14 -11 -29 57 -35 65
-35 51z"/>
<path d="M2200 3529 c0 -5 5 -7 10 -4 6 3 10 8 10 11 0 2 -4 4 -10 4 -5 0 -10
-5 -10 -11z"/>
<path d="M2925 3519 c-9 -14 -2 -20 14 -10 8 6 9 11 3 15 -6 3 -14 1 -17 -5z"/>
<path d="M2891 3444 c0 -11 3 -14 6 -6 3 7 2 16 -1 19 -3 4 -6 -2 -5 -13z"/>
<path d="M2182 3430 c14 -22 24 -19 15 5 -4 8 -11 15 -17 15 -6 0 -6 -7 2 -20z"/>
<path d="M2300 3436 c0 -2 8 -10 18 -17 15 -13 16 -12 3 4 -13 16 -21 21 -21
13z"/>
<path d="M2876 3417 c3 -10 9 -15 12 -12 3 3 0 11 -7 18 -10 9 -11 8 -5 -6z"/>
<path d="M2065 3380 c-3 -6 1 -7 9 -4 18 7 21 14 7 14 -6 0 -13 -4 -16 -10z"/>
<path d="M2210 3378 c0 -9 7 -19 16 -22 15 -6 15 -4 3 11 -7 10 -15 20 -16 22
-2 2 -3 -3 -3 -11z"/>
<path d="M3101 3374 c0 -11 3 -14 6 -6 3 7 2 16 -1 19 -3 4 -6 -2 -5 -13z"/>
<path d="M2810 3377 c0 -4 11 -24 24 -43 22 -32 25 -34 30 -16 13 39 15 62 5
57 -5 -4 -9 -15 -9 -26 0 -27 -12 -24 -32 9 -10 15 -18 23 -18 19z"/>
<path d="M2937 3300 c-3 -11 -1 -23 4 -26 5 -3 9 6 9 20 0 31 -6 34 -13 6z"/>
<path d="M3054 3288 l-19 -23 23 19 c21 18 27 26 19 26 -2 0 -12 -10 -23 -22z"/>
<path d="M2270 3276 c0 -9 5 -16 10 -16 6 0 10 4 10 9 0 6 -4 13 -10 16 -5 3
-10 -1 -10 -9z"/>
<path d="M3021 3274 c0 -11 3 -14 6 -6 3 7 2 16 -1 19 -3 4 -6 -2 -5 -13z"/>
<path d="M2275 3240 c3 -5 8 -10 11 -10 2 0 4 5 4 10 0 6 -5 10 -11 10 -5 0
-7 -4 -4 -10z"/>
<path d="M2923 3208 c-2 -27 -1 -29 15 -17 9 7 18 14 20 15 1 0 -6 8 -15 17
-17 14 -18 13 -20 -15z"/>
<path d="M2957 3229 c7 -7 15 -10 18 -7 3 3 -2 9 -12 12 -14 6 -15 5 -6 -5z"/>
<path d="M2715 3220 c3 -5 8 -10 11 -10 2 0 4 5 4 10 0 6 -5 10 -11 10 -5 0
-7 -4 -4 -10z"/>
<path d="M2290 3206 c0 -9 5 -16 10 -16 6 0 10 4 10 9 0 6 -4 13 -10 16 -5 3
-10 -1 -10 -9z"/>
<path d="M2607 3176 c-3 -8 -2 -27 3 -43 8 -26 8 -25 9 15 1 43 -3 52 -12 28z"/>
<path d="M2424 3150 c1 -17 4 -30 9 -30 10 0 9 48 -2 54 -4 3 -8 -8 -7 -24z"/>
<path d="M2443 3115 c-6 -6 -7 -18 -3 -25 6 -9 10 -7 15 9 8 27 4 33 -12 16z"/>
<path d="M2850 3119 c0 -5 5 -7 10 -4 6 3 10 8 10 11 0 2 -4 4 -10 4 -5 0 -10
-5 -10 -11z"/>
<path d="M2550 3109 c0 -5 5 -7 10 -4 6 3 10 8 10 11 0 2 -4 4 -10 4 -5 0 -10
-5 -10 -11z"/>
<path d="M2835 3080 c-3 -5 -14 -10 -23 -10 -11 0 -18 -8 -18 -20 0 -28 11
-25 36 10 12 17 19 30 16 30 -3 0 -8 -4 -11 -10z"/>
<path d="M2605 3030 c10 -11 20 -20 23 -20 3 0 -3 9 -13 20 -10 11 -20 20 -23
20 -3 0 3 -9 13 -20z"/>
<path d="M2736 3035 c4 -8 11 -15 16 -15 6 0 5 6 -2 15 -7 8 -14 15 -16 15 -2
0 -1 -7 2 -15z"/>
<path d="M2380 3005 c7 -9 15 -13 17 -11 7 7 -7 26 -19 26 -6 0 -6 -6 2 -15z"/>
<path d="M2710 3016 c0 -2 7 -7 16 -10 8 -3 12 -2 9 4 -6 10 -25 14 -25 6z"/>
<path d="M2655 2990 c10 -11 20 -20 23 -20 3 0 -3 9 -13 20 -10 11 -20 20 -23
20 -3 0 3 -9 13 -20z"/>
<path d="M2770 2983 c-8 -16 -15 -31 -17 -35 -2 -3 6 -4 18 -1 18 5 19 2 13
-23 -4 -16 -3 -26 1 -22 9 9 14 108 5 108 -4 0 -13 -12 -20 -27z"/>
<path d="M3120 3000 c-8 -5 -12 -12 -9 -15 4 -3 12 1 19 10 14 17 11 19 -10 5z"/>
<path d="M2981 2964 c0 -11 3 -14 6 -6 3 7 2 16 -1 19 -3 4 -6 -2 -5 -13z"/>
<path d="M2477 2950 c10 -11 10 -17 0 -29 -8 -10 -8 -13 0 -8 6 4 14 1 16 -5
3 -7 6 -3 6 8 1 12 -7 28 -16 35 -15 11 -16 11 -6 -1z"/>
<path d="M3040 2950 c0 -5 7 -7 15 -4 8 4 15 8 15 10 0 2 -7 4 -15 4 -8 0 -15
-4 -15 -10z"/>
<path d="M2880 2921 c0 -4 11 -6 25 -3 14 2 25 6 25 8 0 2 -11 4 -25 4 -14 0
-25 -4 -25 -9z"/>
<path d="M2716 2892 c-3 -5 1 -9 9 -9 8 0 15 4 15 9 0 4 -4 8 -9 8 -6 0 -12
-4 -15 -8z"/>
<path d="M2946 2885 c-9 -26 -7 -32 5 -12 6 10 9 21 6 23 -2 3 -7 -2 -11 -11z"/>
<path d="M2496 2854 c-9 -23 -2 -28 13 -10 7 8 8 17 3 20 -6 3 -13 -1 -16 -10z"/>
<path d="M2905 2840 c-10 -12 -13 -20 -7 -20 7 0 12 4 12 9 0 5 8 11 18 13 11
2 13 6 6 10 -6 4 -19 -1 -29 -12z"/>
<path d="M2520 2810 c0 -5 5 -10 11 -10 5 0 7 5 4 10 -3 6 -8 10 -11 10 -2 0
-4 -4 -4 -10z"/>
<path d="M2853 2798 c-13 -6 -23 -19 -23 -30 0 -15 3 -16 19 -6 11 7 22 20 24
30 3 10 4 18 4 17 -1 0 -12 -5 -24 -11z"/>
<path d="M2700 2775 c0 -8 4 -15 10 -15 5 0 7 7 4 15 -4 8 -8 15 -10 15 -2 0
-4 -7 -4 -15z"/>
<path d="M2621 2770 c0 -8 4 -22 9 -30 12 -18 12 -2 0 25 -6 13 -9 15 -9 5z"/>
<path d="M2305 2720 c-16 -7 -14 -8 12 -7 18 1 33 5 33 10 0 9 -19 8 -45 -3z"/>
<path d="M2670 2716 c0 -2 8 -10 18 -17 15 -13 16 -12 3 4 -13 16 -21 21 -21
13z"/>
<path d="M2786 2693 c-4 -9 -2 -21 4 -27 7 -7 10 -2 10 17 0 31 -5 34 -14 10z"/>
<path d="M2370 2660 c0 -5 5 -10 11 -10 5 0 7 5 4 10 -3 6 -8 10 -11 10 -2 0
-4 -4 -4 -10z"/>
<path d="M2530 2645 c-1 -11 -3 -28 -5 -37 -2 -10 1 -20 6 -24 18 -11 10 -44
-11 -44 -13 0 -20 7 -20 19 0 11 -4 22 -9 25 -4 3 -6 -6 -3 -19 4 -22 1 -25
-26 -25 -17 0 -33 6 -35 13 -3 7 -6 5 -6 -5 -1 -11 9 -21 27 -25 37 -11 317
-9 367 2 l40 8 -30 7 c-16 4 -53 8 -81 9 l-52 1 1 40 c0 22 -2 43 -6 47 -4 3
-7 -10 -7 -31 0 -27 -3 -35 -12 -30 -9 5 -9 2 1 -9 12 -15 11 -17 -7 -17 -11
0 -23 6 -25 13 -4 10 -6 10 -6 0 -1 -8 -16 -13 -39 -13 -23 0 -39 5 -40 13 -6
44 -20 99 -22 82z"/>
<path d="M2390 2637 c0 -17 24 -67 32 -67 7 0 6 5 -1 13 -6 8 -8 17 -5 20 4 3
-1 13 -10 22 -9 9 -16 15 -16 12z"/>
<path d="M2617 2629 c7 -7 15 -10 18 -7 3 3 -2 9 -12 12 -14 6 -15 5 -6 -5z"/>
<path d="M2745 2613 c4 -14 2 -23 -4 -23 -6 0 -8 -7 -5 -15 8 -19 20 -19 28 1
3 9 -1 25 -10 37 l-16 22 7 -22z"/>
<path d="M1922 1721 c119 -17 188 -187 116 -286 -19 -25 -19 -28 -3 -15 56 43
80 110 64 181 -20 86 -78 130 -171 128 l-53 -2 47 -6z"/>
<path d="M2375 1723 c59 -7 73 -13 103 -44 62 -64 79 -171 37 -233 l-24 -36
23 16 c56 36 76 149 39 221 -28 54 -83 83 -153 81 -30 0 -41 -3 -25 -5z"/>
<path d="M2690 1703 l0 -26 23 21 c14 13 36 22 55 22 l32 0 0 -153 c0 -106 -4
-157 -12 -165 -9 -9 -4 -12 23 -12 l34 0 -3 165 -3 165 28 0 c16 0 39 -7 51
-16 21 -14 22 -14 22 5 0 20 -6 21 -125 21 l-125 0 0 -27z"/>
<path d="M3069 1712 c14 -26 15 -277 1 -303 -10 -18 -7 -19 72 -17 71 1 76 2
33 7 l-50 6 -3 158 -3 157 38 0 c47 0 100 -26 126 -61 43 -59 39 -178 -6 -228
l-22 -24 21 11 c102 53 109 215 12 280 -35 23 -53 27 -135 30 -93 4 -95 4 -84
-16z"/>
<path d="M1829 1697 c-123 -103 -55 -307 102 -307 23 0 44 -11 75 -40 47 -44
81 -51 107 -22 16 17 15 18 -18 14 -34 -4 -119 33 -110 48 3 4 -17 10 -43 13
-39 4 -53 12 -83 45 -73 83 -77 207 -8 256 13 9 19 16 14 16 -6 0 -22 -10 -36
-23z"/>
<path d="M2279 1679 c-49 -52 -55 -159 -12 -217 37 -49 69 -66 135 -68 52 -2
56 -2 23 5 -53 10 -79 25 -109 64 -50 66 -57 167 -15 221 28 36 13 33 -22 -5z"/>
</g>
</svg>
